<mxfile host="Electron" modified="2023-10-03T00:15:16.486Z" agent="Mozilla/5.0 (Windows NT 10.0; Win64; x64) AppleWebKit/537.36 (KHTML, like Gecko) draw.io/22.0.1 Chrome/114.0.5735.289 Electron/25.8.4 Safari/537.36" etag="1XzAcCS1ycp96I0hPu1U" version="22.0.1" type="device">
  <diagram name="Page-1" id="Xl0DaK0n5r-McrEWnR_1">
    <mxGraphModel dx="1222" dy="899" grid="1" gridSize="10" guides="1" tooltips="1" connect="1" arrows="1" fold="1" page="1" pageScale="1" pageWidth="850" pageHeight="1100" math="0" shadow="0">
      <root>
        <mxCell id="0" />
        <mxCell id="1" parent="0" />
        <mxCell id="jQ1dbZO5Ab-iZpPSWYLp-6" value="&lt;font style=&quot;font-size: 24px;&quot;&gt;a&lt;/font&gt;" style="text;html=1;align=center;verticalAlign=middle;resizable=0;points=[];autosize=1;strokeColor=none;fillColor=none;" parent="1" vertex="1">
          <mxGeometry x="180" y="230" width="40" height="40" as="geometry" />
        </mxCell>
        <mxCell id="jQ1dbZO5Ab-iZpPSWYLp-7" value="&lt;font style=&quot;font-size: 24px;&quot;&gt;b&lt;/font&gt;" style="text;strokeColor=none;align=center;fillColor=none;html=1;verticalAlign=middle;whiteSpace=wrap;rounded=0;" parent="1" vertex="1">
          <mxGeometry x="170" y="360" width="60" height="30" as="geometry" />
        </mxCell>
        <mxCell id="jQ1dbZO5Ab-iZpPSWYLp-35" style="edgeStyle=orthogonalEdgeStyle;rounded=0;orthogonalLoop=1;jettySize=auto;html=1;entryX=0;entryY=0.75;entryDx=0;entryDy=0;entryPerimeter=0;fontSize=24;" parent="1" source="jQ1dbZO5Ab-iZpPSWYLp-8" target="jQ1dbZO5Ab-iZpPSWYLp-28" edge="1">
          <mxGeometry relative="1" as="geometry" />
        </mxCell>
        <mxCell id="jQ1dbZO5Ab-iZpPSWYLp-8" value="&lt;font style=&quot;font-size: 24px;&quot;&gt;c&lt;/font&gt;" style="text;html=1;align=center;verticalAlign=middle;resizable=0;points=[];autosize=1;strokeColor=none;fillColor=none;" parent="1" vertex="1">
          <mxGeometry x="190" y="640" width="40" height="40" as="geometry" />
        </mxCell>
        <mxCell id="jQ1dbZO5Ab-iZpPSWYLp-25" value="y" style="text;html=1;align=center;verticalAlign=middle;resizable=0;points=[];autosize=1;strokeColor=none;fillColor=none;fontSize=24;" parent="1" vertex="1">
          <mxGeometry x="580" y="610" width="40" height="40" as="geometry" />
        </mxCell>
        <mxCell id="jQ1dbZO5Ab-iZpPSWYLp-22" value="x" style="text;html=1;align=center;verticalAlign=middle;resizable=0;points=[];autosize=1;strokeColor=none;fillColor=none;fontSize=24;" parent="1" vertex="1">
          <mxGeometry x="570" y="260" width="40" height="40" as="geometry" />
        </mxCell>
        <mxCell id="qQ93wYsbWtxMuS3z3xkx-8" style="edgeStyle=orthogonalEdgeStyle;rounded=0;orthogonalLoop=1;jettySize=auto;html=1;entryX=0;entryY=0.5;entryDx=0;entryDy=0;" edge="1" parent="1" source="jQ1dbZO5Ab-iZpPSWYLp-1" target="jQ1dbZO5Ab-iZpPSWYLp-3">
          <mxGeometry relative="1" as="geometry" />
        </mxCell>
        <mxCell id="jQ1dbZO5Ab-iZpPSWYLp-1" value="" style="verticalLabelPosition=bottom;shadow=0;dashed=0;align=center;html=1;verticalAlign=top;shape=mxgraph.electrical.logic_gates.logic_gate;operation=and;" parent="1" vertex="1">
          <mxGeometry x="302.5" y="300" width="37.5" height="30" as="geometry" />
        </mxCell>
        <mxCell id="qQ93wYsbWtxMuS3z3xkx-12" style="edgeStyle=orthogonalEdgeStyle;rounded=0;orthogonalLoop=1;jettySize=auto;html=1;exitX=1;exitY=0.5;exitDx=0;exitDy=0;exitPerimeter=0;entryX=0;entryY=0.5;entryDx=0;entryDy=0;" edge="1" parent="1" source="jQ1dbZO5Ab-iZpPSWYLp-28" target="qQ93wYsbWtxMuS3z3xkx-3">
          <mxGeometry relative="1" as="geometry">
            <Array as="points">
              <mxPoint x="400" y="660" />
            </Array>
          </mxGeometry>
        </mxCell>
        <mxCell id="jQ1dbZO5Ab-iZpPSWYLp-28" value="" style="verticalLabelPosition=bottom;shadow=0;dashed=0;align=center;html=1;verticalAlign=top;shape=mxgraph.electrical.logic_gates.logic_gate;operation=or;fontSize=24;" parent="1" vertex="1">
          <mxGeometry x="350" y="590" width="50" height="25" as="geometry" />
        </mxCell>
        <mxCell id="qQ93wYsbWtxMuS3z3xkx-10" style="edgeStyle=orthogonalEdgeStyle;rounded=0;orthogonalLoop=1;jettySize=auto;html=1;" edge="1" parent="1" source="jQ1dbZO5Ab-iZpPSWYLp-3">
          <mxGeometry relative="1" as="geometry">
            <mxPoint x="640" y="315" as="targetPoint" />
          </mxGeometry>
        </mxCell>
        <mxCell id="jQ1dbZO5Ab-iZpPSWYLp-3" value="" style="rounded=0;whiteSpace=wrap;html=1;" parent="1" vertex="1">
          <mxGeometry x="410" y="205" width="120" height="220" as="geometry" />
        </mxCell>
        <mxCell id="jQ1dbZO5Ab-iZpPSWYLp-4" value="" style="triangle;whiteSpace=wrap;html=1;rotation=-90;" parent="1" vertex="1">
          <mxGeometry x="455" y="400" width="30" height="20" as="geometry" />
        </mxCell>
        <mxCell id="qQ93wYsbWtxMuS3z3xkx-15" style="edgeStyle=orthogonalEdgeStyle;rounded=0;orthogonalLoop=1;jettySize=auto;html=1;" edge="1" parent="1" source="qQ93wYsbWtxMuS3z3xkx-3">
          <mxGeometry relative="1" as="geometry">
            <mxPoint x="650" y="660" as="targetPoint" />
          </mxGeometry>
        </mxCell>
        <mxCell id="qQ93wYsbWtxMuS3z3xkx-3" value="" style="rounded=0;whiteSpace=wrap;html=1;" vertex="1" parent="1">
          <mxGeometry x="420" y="550" width="120" height="220" as="geometry" />
        </mxCell>
        <mxCell id="qQ93wYsbWtxMuS3z3xkx-4" value="" style="triangle;whiteSpace=wrap;html=1;rotation=-90;" vertex="1" parent="1">
          <mxGeometry x="465" y="745" width="30" height="20" as="geometry" />
        </mxCell>
        <mxCell id="qQ93wYsbWtxMuS3z3xkx-11" value="" style="endArrow=classic;html=1;rounded=0;edgeStyle=orthogonalEdgeStyle;entryX=0;entryY=0.25;entryDx=0;entryDy=0;entryPerimeter=0;" edge="1" parent="1" target="jQ1dbZO5Ab-iZpPSWYLp-28">
          <mxGeometry width="50" height="50" relative="1" as="geometry">
            <mxPoint x="570" y="310" as="sourcePoint" />
            <mxPoint x="370" y="460" as="targetPoint" />
            <Array as="points">
              <mxPoint x="570" y="320" />
              <mxPoint x="570" y="496" />
              <mxPoint x="300" y="496" />
              <mxPoint x="300" y="596" />
            </Array>
          </mxGeometry>
        </mxCell>
        <mxCell id="qQ93wYsbWtxMuS3z3xkx-13" style="edgeStyle=orthogonalEdgeStyle;rounded=0;orthogonalLoop=1;jettySize=auto;html=1;entryX=0;entryY=0.75;entryDx=0;entryDy=0;entryPerimeter=0;" edge="1" parent="1" source="jQ1dbZO5Ab-iZpPSWYLp-7" target="jQ1dbZO5Ab-iZpPSWYLp-1">
          <mxGeometry relative="1" as="geometry" />
        </mxCell>
        <mxCell id="qQ93wYsbWtxMuS3z3xkx-14" style="edgeStyle=orthogonalEdgeStyle;rounded=0;orthogonalLoop=1;jettySize=auto;html=1;entryX=0;entryY=0.25;entryDx=0;entryDy=0;entryPerimeter=0;" edge="1" parent="1" source="jQ1dbZO5Ab-iZpPSWYLp-6" target="jQ1dbZO5Ab-iZpPSWYLp-1">
          <mxGeometry relative="1" as="geometry" />
        </mxCell>
      </root>
    </mxGraphModel>
  </diagram>
</mxfile>
